<?xml version="1.0" encoding="UTF-8"?>
<svg width="256px" height="256px" viewBox="0 0 256 256" version="1.1" xmlns="http://www.w3.org/2000/svg" xmlns:xlink="http://www.w3.org/1999/xlink">
    <!-- Generator: Sketch 50.2 (55047) - http://www.bohemiancoding.com/sketch -->
    <title>icon-256×256</title>
    <desc>Created with Sketch.</desc>
    <defs>
        <linearGradient x1="50%" y1="0%" x2="50%" y2="100%" id="linearGradient-1">
            <stop stop-color="#1AB7FF" offset="0%"></stop>
            <stop stop-color="#004E7F" offset="100%"></stop>
        </linearGradient>
        <path d="M196.058643,155.631737 C196.058643,168.607784 193.212228,180.109281 186.950114,191.315868 C186.665473,191.315868 186.665473,191.610778 186.665473,191.610778 C185.526907,193.38024 184.672982,195.149701 183.534416,196.624251 C183.534416,196.624251 183.249775,196.919162 183.249775,196.919162 C182.111209,198.688623 180.972643,200.163174 179.834077,201.637725 C179.834077,201.637725 179.549435,201.637725 179.549435,201.932635 C178.126228,203.407186 176.987662,204.881737 175.564454,206.356287 C174.141246,207.830838 172.718039,209.010479 171.294831,210.48503 C171.294831,210.48503 171.01019,210.77994 171.01019,210.77994 C169.586982,211.959581 167.879133,213.139222 166.455926,214.318862 C166.455926,214.318862 166.171284,214.613772 166.171284,214.613772 C164.463435,215.793413 163.040227,216.973054 161.332378,217.857784 C151.369925,224.050898 139.984265,227 127.74468,227 C108.95834,227 92.7337739,219.922156 79.6402643,206.356287 C72.5242265,198.688623 67.4006793,190.136228 63.9849812,180.994012 C63.9849812,180.994012 64.2696227,181.288922 64.2696227,181.288922 C61.4232076,173.326347 60,165.068862 60,155.926647 L60,30 L85.0484531,30 L85.0484531,101.368263 C87.6102267,99.3038922 90.4566418,97.239521 93.3030569,95.4700599 C93.3030569,95.1751497 93.5876984,95.1751497 93.5876984,95.1751497 C103.834793,88.9820359 115.220453,85.738024 127.74468,85.738024 C140.268906,85.738024 151.654567,88.9820359 161.901661,95.1751497 C162.470944,95.4700599 163.324869,95.7649701 163.894152,96.3547904 C168.163775,99.3038922 172.148756,102.547904 175.849095,106.381737 C176.987662,107.266467 178.126228,108.446108 178.980152,109.625749 C183.819058,115.229042 187.519397,121.127246 190.365813,127.615269 C190.365813,127.91018 190.650454,127.91018 190.650454,128.20509 C190.935096,128.79491 191.219737,129.679641 191.504379,130.269461 C191.504379,130.564371 191.78902,130.859281 191.78902,131.154192 C191.78902,131.744012 192.073662,132.628743 192.358303,133.218563 C192.358303,133.808383 192.642945,134.103293 192.642945,134.398204 C192.927586,134.988024 192.927586,135.577844 193.212228,136.167665 C193.212228,136.462575 193.496869,137.052395 193.496869,137.347305 C193.781511,137.937126 194.066152,138.526946 194.066152,139.116766 C194.066152,139.706587 194.350794,140.001497 194.350794,140.591317 C194.350794,141.181138 194.635435,141.770958 194.635435,142.360778 C194.635435,142.950599 194.920077,143.540419 194.920077,144.13024 C194.920077,144.42515 195.204718,145.01497 195.204718,145.60479 C195.48936,146.194611 195.48936,146.784431 195.48936,147.374251 C195.774001,147.964072 195.774001,148.258982 195.774001,148.848802 C196.058643,149.438623 196.058643,150.323353 196.058643,150.913174 C196.058643,151.208084 196.058643,151.797904 196.058643,152.092814 C196.058643,153.272455 196.058643,154.452096 196.058643,155.631737 Z M127.545194,199.70044 C151.204685,199.70044 170.384492,180.092825 170.384492,155.905606 C170.384492,131.718387 151.204685,112.110772 127.545194,112.110772 C103.885703,112.110772 84.7058959,131.718387 84.7058959,155.905606 C84.7058959,180.092825 103.885703,199.70044 127.545194,199.70044 Z M161.003516,47.989521 C161.003516,57.7215569 168.688836,65.9790419 178.366648,65.9790419 C188.044459,65.9790419 195.72978,58.0164671 195.72978,47.989521 C195.72978,37.9625749 188.044459,30 178.366648,30 C168.688836,30 161.003516,38.257485 161.003516,47.989521 M166.696346,47.989521 C166.696346,41.2065868 171.819893,35.8982036 178.366648,35.8982036 C184.913403,35.8982036 190.03695,41.2065868 190.03695,47.989521 C190.03695,54.4775449 184.913403,60.0808383 178.366648,60.0808383 C171.819893,60.0808383 166.696346,54.7724551 166.696346,47.989521" id="path-2"></path>
        <filter x="-8.8%" y="-4.6%" width="117.6%" height="112.2%" filterUnits="objectBoundingBox" id="filter-3">
            <feOffset dx="0" dy="3" in="SourceAlpha" result="shadowOffsetOuter1"></feOffset>
            <feGaussianBlur stdDeviation="3.5" in="shadowOffsetOuter1" result="shadowBlurOuter1"></feGaussianBlur>
            <feColorMatrix values="0 0 0 0 0   0 0 0 0 0   0 0 0 0 0  0 0 0 0.151522871 0" type="matrix" in="shadowBlurOuter1"></feColorMatrix>
        </filter>
    </defs>
    <g id="icon-256×256" stroke="none" stroke-width="1" fill="none" fill-rule="evenodd">
        <rect id="Rectangle-Copy-3" fill="url(#linearGradient-1)" x="0" y="0" width="256" height="256"></rect>
        <g id="Shape" fill-rule="nonzero">
            <use fill="black" fill-opacity="1" filter="url(#filter-3)" xlink:href="#path-2"></use>
            <use fill="#FFFFFF" fill-rule="evenodd" xlink:href="#path-2"></use>
        </g>
    </g>
</svg>